<svg xmlns="http://www.w3.org/2000/svg" width="800" height="737" viewBox="0 0 800 737" version="1.1"><path d="M 187 39.509 C 187 40.394, 187.386 40.879, 187.858 40.588 C 188.330 40.296, 191.142 41.883, 194.108 44.114 C 202.587 50.493, 216.913 58.618, 223.718 60.908 C 231.692 63.590, 240.582 63.611, 274 61.023 C 313.828 57.938, 331.605 57.176, 343.385 58.050 C 359.057 59.213, 364.018 61.837, 379.058 76.913 C 385.415 83.286, 393.465 92.451, 396.946 97.279 C 400.427 102.107, 403.475 105.858, 403.719 105.615 C 403.963 105.371, 403.656 104.226, 403.038 103.071 C 401.669 100.512, 401.454 100.589, 414 99.141 C 427.778 97.551, 434.042 95.666, 447.500 89.057 C 466.732 79.613, 476.021 72.868, 490.284 57.989 C 501.299 46.499, 502.900 45.170, 503.287 47.193 C 503.610 48.887, 503.764 48.614, 503.864 46.167 C 503.939 44.333, 503.640 42.983, 503.199 43.167 C 502.758 43.350, 498.821 47.366, 494.449 52.092 C 483.139 64.316, 477.474 69, 473.996 69 C 472.411 69, 467.151 67.678, 462.307 66.062 C 444.696 60.188, 419.252 57.725, 386.446 58.720 C 372.880 59.132, 364.717 58.835, 353 57.505 C 335.116 55.474, 326.130 55.716, 277.122 59.547 C 238.877 62.537, 233.110 62.590, 224.855 60.027 C 217.635 57.784, 206.302 51.561, 196.373 44.385 C 187.093 37.679, 187 37.630, 187 39.509 M 188.086 43.143 C 187.873 47.227, 194.377 69.306, 198.046 76.953 C 204.667 90.750, 208.810 96.771, 219.236 107.748 C 230.613 119.727, 230.674 118.030, 218.530 127.490 C 201.801 140.521, 178.347 154.248, 152.747 165.991 C 147.435 168.428, 143.237 170.570, 143.419 170.752 C 144.038 171.371, 170.451 159.251, 181.500 153.279 C 194.823 146.078, 205.569 139.426, 221.605 128.453 L 233.710 120.170 236.605 122.138 C 238.197 123.220, 242.650 125.710, 246.500 127.670 C 250.350 129.631, 253.660 131.379, 253.855 131.556 C 254.051 131.733, 250.965 135.618, 246.999 140.189 C 237.438 151.206, 226.077 166.326, 221.533 174.079 C 217.087 181.665, 209.876 198.337, 207.004 207.672 L 204.903 214.500 196.942 218.903 C 191.241 222.057, 186.730 225.651, 181.046 231.572 L 173.111 239.837 172.724 236.169 C 172.390 233.013, 172.313 233.184, 172.168 237.397 L 172 242.294 181.250 233.379 C 190.008 224.938, 200.997 217.664, 202.588 219.255 C 202.977 219.644, 202.718 224.808, 202.012 230.731 C 200.244 245.571, 200.585 259.805, 203.079 275.257 C 206.456 296.178, 207.075 296.516, 209 278.500 C 210.313 266.219, 213.124 252.060, 215.750 244.500 L 217.487 239.500 218.102 253 C 218.624 264.451, 219.190 267.900, 221.830 275.723 C 228.863 296.556, 237.924 310.257, 252.218 321.670 C 259.957 327.849, 262.647 331.985, 267.065 344.500 C 269.842 352.366, 270.176 354.387, 269.714 360.540 C 269.408 364.617, 269.627 368.406, 270.234 369.540 C 270.810 370.618, 274.931 375.100, 279.391 379.500 C 286.964 386.971, 306.114 411.891, 300.909 407.500 C 299.604 406.400, 292.081 399.425, 284.189 392 C 266.753 375.595, 259.087 370, 254.044 370 C 251.982 370, 247.300 371.506, 243.088 373.525 C 238.575 375.688, 234.988 376.814, 233.805 376.438 C 230.250 375.310, 202.911 339.176, 185.448 312.526 C 165.480 282.052, 143.264 238.789, 112.772 171 C 104.038 151.582, 100.370 141.937, 95.087 124.500 L 88.421 102.500 74.212 102.579 L 60.003 102.659 52.751 106.366 C 48.763 108.405, 44 111.313, 42.168 112.828 L 38.835 115.583 46.510 134.767 L 54.186 153.951 52.616 165.725 C 46.775 209.543, 44.597 244.361, 44.594 294 C 44.591 339.488, 45.364 353.150, 49.574 382 C 54.919 418.630, 72.968 472.193, 95.907 519.500 C 116.368 561.698, 137.881 592.934, 165.477 620.517 C 214.551 669.568, 266.616 693.488, 344.022 702.547 C 362.578 704.719, 408.152 705.537, 431 704.108 C 491.019 700.356, 538.890 691.315, 575.500 676.818 C 614.329 661.442, 654.262 633.311, 676.693 605.533 C 696.179 581.401, 720.248 538.923, 736.994 499.110 L 741.972 487.275 740.344 482.495 C 739.448 479.866, 737.084 476.091, 735.092 474.107 C 730.090 469.127, 714.400 457, 712.958 457 C 712.308 457, 707.439 458.625, 702.138 460.611 C 696.837 462.597, 691.459 464.411, 690.187 464.642 C 688.914 464.873, 684.189 466.579, 679.687 468.432 C 671.424 471.833, 646.603 479.897, 624.500 486.361 C 566.347 503.367, 513.954 511.894, 485.439 508.994 C 479.657 508.406, 473.256 507.366, 471.214 506.684 L 467.500 505.442 467.740 499.971 C 468.074 492.347, 468.317 492, 473.338 492 C 477.646 492, 477.751 492.079, 478.358 495.750 C 478.699 497.813, 478.983 500.738, 478.989 502.250 C 478.996 503.912, 479.544 505, 480.376 505 C 484.170 505, 505.365 492.952, 508.670 488.916 C 509.593 487.789, 508.828 484.958, 505.044 475.494 C 499.996 462.870, 495.974 455.244, 488.449 444.028 C 483.306 436.363, 469.825 419.457, 461.821 410.636 L 456.500 404.771 456.493 415.136 C 456.487 423.882, 456.116 426.321, 454.116 430.757 C 449.914 440.083, 445.306 442.771, 422 449.491 C 415.675 451.314, 408.438 453.115, 405.917 453.492 C 401.351 454.174, 401.333 454.165, 401.333 451.221 C 401.333 446.707, 387.320 421.118, 384.454 420.399 C 381.898 419.758, 380.941 417.392, 382.038 414.427 C 383.208 411.265, 399.170 396.698, 407.716 390.996 C 416.636 385.043, 417.790 384.090, 413.338 386.353 C 407.991 389.071, 394.929 399.439, 386.091 407.982 L 377.681 416.109 369.091 415.062 C 343.953 412, 309.223 396.276, 281.341 375.336 C 272.703 368.849, 271.779 366.759, 272.625 355.614 C 273.097 349.391, 272.604 343.305, 270.511 329.500 C 267.704 310.995, 267.624 304.350, 270.088 294.564 C 271.109 290.511, 272.010 289.353, 276.389 286.466 C 281.830 282.878, 291.611 279.880, 304.250 277.925 C 314.963 276.267, 314.129 274.727, 302.750 275.153 C 294.513 275.462, 292.643 275.909, 285.675 279.236 C 281.372 281.291, 276.690 283.885, 275.273 285 C 273.855 286.115, 272.539 286.873, 272.349 286.683 C 272.160 286.493, 273.065 283.224, 274.362 279.419 C 277.548 270.068, 285.249 254.882, 290.702 247.199 C 295.783 240.039, 296.646 240.095, 299.504 247.764 C 302.566 255.979, 314.614 279.453, 321.117 289.871 C 330.823 305.423, 342.577 320.641, 352.496 330.500 C 363.311 341.249, 382.376 357.338, 382.804 356.075 C 382.970 355.582, 381.993 349.401, 380.631 342.339 C 377.245 324.783, 377.155 323.605, 379.165 323.212 C 380.103 323.028, 381.085 323.694, 381.416 324.737 C 381.739 325.755, 384.001 328.547, 386.442 330.943 L 390.880 335.299 388.472 327.899 L 386.063 320.500 390.282 316.638 C 392.602 314.514, 396.568 311.043, 399.095 308.925 L 403.689 305.074 404.972 313.787 C 407.652 331.993, 415.647 354.505, 421.327 359.838 C 423.363 361.751, 425.265 362.276, 431.769 362.722 C 444.577 363.599, 456.162 360.162, 460.614 354.162 L 463.332 350.500 460.166 353.437 C 456.624 356.723, 456.333 356.142, 458.478 350.063 C 460.038 345.641, 462.979 324.178, 463.030 316.837 C 463.085 309.032, 464.945 315.069, 466.062 326.680 C 466.635 332.631, 467.218 337.911, 467.357 338.414 C 467.775 339.929, 471.866 319.899, 472.311 314.158 L 472.724 308.816 464.686 301.971 C 460.264 298.206, 454.555 293.987, 451.999 292.596 C 442.883 287.634, 429.235 285.619, 420.993 288.016 C 417.927 288.909, 417.281 288.766, 415.708 286.854 C 412.791 283.307, 406.719 271.948, 407.384 271.283 C 407.721 270.945, 410.713 270.298, 414.033 269.844 C 420.045 269.022, 420.113 269.041, 431.784 274.882 C 444.971 281.481, 454.671 285.183, 463.500 286.985 C 473.401 289.007, 474.760 289.781, 476.415 294.353 C 480.013 304.293, 481.464 315.275, 481.453 332.500 C 481.441 351.375, 479.835 362.859, 475.245 376.893 C 472.850 384.218, 471.952 385.705, 468.194 388.576 C 465.826 390.385, 462.451 392.175, 460.694 392.553 C 458.937 392.931, 456.262 393.873, 454.750 394.646 C 453.238 395.419, 452 395.694, 452 395.257 C 452 393.903, 444.020 384.728, 440.733 382.303 C 438.281 380.494, 436.420 380.028, 432.056 380.131 L 426.500 380.262 432.191 380.993 C 439.989 381.994, 446.868 388.001, 453.042 399.201 L 455.964 404.500 455.982 400.359 C 455.999 396.512, 456.267 396.111, 459.750 394.721 C 461.813 393.898, 465.244 392.745, 467.375 392.158 L 471.250 391.092 470.656 395.296 C 470.330 397.608, 469.822 400.850, 469.527 402.500 C 469.232 404.150, 469.858 403.025, 470.917 400 C 475.799 386.064, 478.278 376.749, 480.721 363.169 C 484.204 343.813, 484.360 321.494, 481.139 303.651 C 479.963 297.133, 479 291.446, 479 291.011 C 479 290.576, 486.762 290.236, 496.250 290.254 C 505.738 290.272, 515.033 289.946, 516.907 289.529 L 520.315 288.772 519.691 301.136 C 518.270 329.314, 512.652 347.201, 497.311 372.394 C 490.631 383.365, 485.339 390.293, 476.012 400.280 C 472.047 404.526, 469.267 408, 469.835 408 C 470.403 408, 476.125 402.163, 482.551 395.028 C 492.737 383.719, 494.956 381.770, 499.867 379.823 C 508.868 376.254, 515.358 376.796, 523.820 381.824 C 531.170 386.190, 536.125 391.098, 538.757 396.616 C 540.381 400.022, 541.983 401.069, 542.020 398.750 C 542.031 398.063, 542.484 394.427, 543.027 390.671 C 543.916 384.518, 543.773 383.147, 541.575 376.827 C 539.337 370.393, 539.295 369.957, 541.063 371.557 C 542.123 372.516, 544.101 375.596, 545.458 378.400 C 546.816 381.205, 547.923 382.825, 547.918 382 C 547.902 379.204, 543.524 372.303, 537.741 365.957 L 531.981 359.638 536.528 368.734 C 541.426 378.533, 542.719 384.720, 541.529 392.654 L 540.801 397.500 538.984 394 C 536.704 389.611, 531.114 384.350, 524.024 379.922 C 519.054 376.817, 517.855 376.502, 511.024 376.501 C 506.886 376.500, 501.760 376.897, 499.634 377.383 L 495.768 378.266 499.465 372.383 C 501.499 369.147, 508.234 361.550, 514.433 355.500 C 526.948 343.286, 528.404 340.484, 528.468 328.500 C 528.511 320.397, 527.502 317.354, 524.244 315.767 C 521.539 314.449, 521.503 314.308, 521.704 305.744 C 521.816 300.967, 522.392 295.258, 522.984 293.059 C 523.945 289.490, 524.513 288.944, 528.280 287.976 C 539.108 285.193, 543.060 283.794, 550.500 280.107 C 554.900 277.927, 560.474 274.923, 562.887 273.433 L 567.275 270.723 566.546 274.611 C 564.609 284.948, 552.403 313.101, 542.227 330.701 C 539.548 335.335, 537.992 337.003, 536.071 337.301 C 534.657 337.521, 537.550 337.734, 542.500 337.776 C 547.450 337.818, 553.525 337.454, 556 336.967 C 559.488 336.281, 558.431 336.182, 551.300 336.527 C 545.993 336.783, 541.849 336.565, 541.508 336.012 C 541.182 335.485, 542.953 331.522, 545.443 327.204 C 552.677 314.663, 560.725 297.005, 565.006 284.282 C 567.187 277.802, 568.990 271.825, 569.013 271 C 569.036 270.175, 571.730 267.711, 575 265.524 C 581.220 261.365, 581.218 260.743, 574.980 259.626 L 571.460 258.996 571.480 236.248 C 571.491 223.737, 571.097 208.603, 570.605 202.618 C 569.956 194.739, 570.015 191.842, 570.818 192.118 C 573.294 192.971, 587.108 211.744, 593.212 222.552 C 599.495 233.676, 599.754 233.980, 600.366 230.922 C 601.340 226.052, 601.118 210.900, 600.017 207.060 C 599.477 205.175, 599.240 203.427, 599.491 203.176 C 600.323 202.344, 610.598 210.029, 615.707 215.305 C 622.782 222.611, 628.922 230.460, 637.115 242.671 C 641.624 249.391, 644.535 252.865, 645.145 252.255 C 646.570 250.830, 652.595 225.675, 654.034 215.145 C 655.716 202.836, 654.862 193.370, 651.155 183.239 C 644.934 166.238, 634.083 153.005, 621.402 146.953 C 611.891 142.414, 598.357 140.190, 589.489 141.709 C 583.280 142.773, 573.457 146.935, 564.705 152.212 L 560.909 154.500 558.454 151.694 C 557.104 150.150, 553.508 144.655, 550.464 139.482 C 539.553 120.942, 530.177 109.956, 508.559 90.376 L 500.694 83.253 501.383 78.376 C 501.762 75.694, 502.227 69.225, 502.417 64 C 502.606 58.775, 502.588 56.300, 502.376 58.500 C 499.942 83.741, 496.624 95.271, 484.680 120 C 478.412 132.977, 473.192 141.364, 467.188 148.104 C 463.648 152.079, 462.226 152.899, 456.793 154.104 C 445.310 156.651, 427.773 155.687, 406.500 151.340 C 404.850 151.002, 403.740 150.991, 404.034 151.314 C 404.327 151.637, 410.234 153.048, 417.159 154.450 C 440.988 159.275, 456.081 157.803, 476.953 148.617 C 482.681 146.096, 487.575 144.242, 487.830 144.497 C 488.085 144.752, 486.801 147.992, 484.977 151.698 C 478.252 165.359, 467.164 172.837, 452.253 173.767 C 446.741 174.111, 442.558 173.844, 439.946 172.982 C 431.811 170.297, 435.433 172.769, 445.776 176.961 C 460.901 183.091, 480.825 193.302, 488.220 198.714 C 495.749 204.224, 508.865 215.300, 526.500 231.038 C 552.583 254.316, 554.285 255.423, 570.148 259.433 L 579.153 261.709 571.326 266.725 C 544.212 284.100, 526.862 288.714, 492.246 287.757 C 466.939 287.057, 452.590 283.560, 432.729 273.252 L 425.500 269.500 437.369 269.217 C 448 268.964, 459.893 270.251, 469 272.640 C 470.375 273, 471.235 273.001, 470.910 272.641 C 470.586 272.281, 464.511 270.612, 457.410 268.931 C 447.766 266.648, 441.044 265.729, 430.836 265.301 L 417.173 264.726 407.353 258.430 C 401.951 254.968, 397.378 252.288, 397.190 252.476 C 397.002 252.665, 398.232 255.972, 399.924 259.827 C 401.616 263.681, 403 267.036, 403 267.282 C 403 267.527, 400.980 268.500, 398.510 269.443 C 392.085 271.897, 391.577 273.440, 397.485 272.554 C 400.109 272.161, 402.847 271.612, 403.571 271.335 C 404.412 271.011, 406.031 273.109, 408.069 277.165 C 409.821 280.649, 412.129 284.740, 413.198 286.255 L 415.143 289.010 410.442 291.025 L 405.741 293.040 402.297 290.413 C 393.677 283.838, 385.719 273.865, 377.619 259.487 C 374.528 254.002, 372 248.948, 372 248.257 C 372 247.566, 371.550 247, 371 247 C 369.790 247, 369.790 244.603, 371.001 273.014 C 371.551 285.931, 372.702 302.238, 373.559 309.251 C 374.416 316.263, 374.839 322.451, 374.500 323.001 C 374.160 323.550, 374.295 324, 374.799 324 C 375.303 324, 376.911 329.963, 378.372 337.250 C 379.834 344.538, 381.326 351.613, 381.690 352.972 C 382.327 355.359, 382.197 355.325, 377.950 351.972 C 367.802 343.964, 346.264 321.863, 338.384 311.373 C 310.659 274.465, 295.781 240.086, 287.556 193.925 L 285.031 179.754 288.600 171.627 C 290.563 167.157, 293.774 160.854, 295.736 157.619 C 298.802 152.565, 311.011 136.200, 315.793 130.735 C 317.258 129.060, 317.137 129.040, 313.419 130.343 C 299.002 135.397, 276.034 136.637, 264.500 132.985 C 249.602 128.268, 233.994 118.814, 221.624 107.013 C 205.673 91.796, 196.972 75.787, 190.097 49 C 189.038 44.875, 188.133 42.239, 188.086 43.143 M 371.514 60.877 L 363.529 61.500 368.514 65.164 C 373.946 69.155, 388.950 84.258, 393.420 90.234 C 394.957 92.288, 397.787 94.941, 399.709 96.129 C 402.886 98.093, 404.084 98.232, 412.852 97.660 C 418.159 97.314, 425.200 96.308, 428.500 95.425 C 436.612 93.254, 454.631 84.500, 464.931 77.724 L 473.362 72.178 469.431 70.491 C 451.750 62.905, 438.336 60.808, 405.500 60.498 C 391.200 60.364, 375.906 60.534, 371.514 60.877 M 496.657 95.250 C 492.178 108.246, 482.205 129.323, 475.832 139.263 C 472.624 144.265, 470 148.707, 470 149.134 C 470 150.027, 474.956 148.333, 483.279 144.595 C 486.457 143.168, 489.269 142, 489.529 142 C 492.101 142, 484.931 156.748, 479.330 162.977 C 474.214 168.669, 464.900 173.815, 458.350 174.570 C 447.493 175.822, 447.340 175.599, 465.057 184.335 C 484.489 193.918, 491.934 199.101, 513.500 218.064 C 547.747 248.177, 551.592 251.328, 557.500 254.118 C 560.800 255.677, 564.892 257.230, 566.593 257.570 L 569.686 258.187 570.362 244.721 C 571.026 231.498, 569.888 208.826, 567.917 196 C 562.832 162.904, 548.195 132.881, 525.645 109.288 C 518.263 101.565, 501.408 86.998, 499.856 87 C 499.660 87.001, 498.221 90.713, 496.657 95.250 M 67.619 104.077 C 63.285 104.545, 59.549 105.117, 59.319 105.348 C 59.088 105.578, 62.734 116.177, 67.421 128.901 L 75.942 152.035 75.336 190.768 C 73.845 286.107, 82.163 368.727, 98.130 417.145 C 108.770 449.410, 137.392 505.587, 157.923 534.500 C 189.559 579.051, 228.623 611.357, 274.836 631.186 C 299.491 641.766, 331.672 648.824, 369.500 651.949 C 440.895 657.848, 533.866 648.958, 582.479 631.583 C 606.672 622.936, 632.864 604.120, 664.023 573.002 C 678.493 558.551, 698.695 535.878, 708.893 522.646 L 713.285 516.946 710.529 495.723 C 709.013 484.050, 707.711 471.484, 707.636 467.797 C 707.481 460.149, 707.842 460.277, 697.212 464.099 C 694.304 465.145, 691.280 466, 690.492 466 C 689.704 466, 686.683 467.073, 683.780 468.385 C 677.402 471.265, 647.299 481.158, 626 487.372 C 589.424 498.045, 548.590 506.840, 522.929 509.572 C 481.490 513.985, 433.618 505.845, 387.582 486.557 L 377.378 482.282 372.731 490.391 C 370.175 494.851, 363.180 506.150, 357.186 515.500 C 346.632 531.964, 346.134 532.558, 341.394 534.330 C 327.878 539.383, 304.704 544.066, 302.749 542.139 C 302.336 541.732, 302.751 534.575, 303.670 526.236 L 305.341 511.073 313.455 505.673 C 322.240 499.827, 345.166 481.833, 344.578 481.245 C 344.380 481.047, 339.093 482.438, 332.829 484.337 C 310.554 491.090, 272.004 499.601, 258.903 500.659 C 247.529 501.578, 242.290 500.525, 240.070 496.875 C 238.019 493.502, 233.357 474.452, 232.453 465.749 C 231.706 458.557, 230.176 456.802, 225.755 458.070 C 220.910 459.460, 214.722 459.194, 212.291 457.491 C 209.880 455.802, 206.816 448.334, 205.078 439.910 C 204.185 435.581, 203.243 433.817, 200.903 432.086 C 194.723 427.517, 199.715 422.418, 211.439 421.323 C 217.046 420.800, 217.988 420.448, 217.397 419.101 C 217.011 418.220, 216.484 415.990, 216.226 414.144 C 215.758 410.798, 215.767 410.790, 219.128 411.505 C 222.740 412.274, 234.569 417.748, 239.500 420.932 C 242.061 422.586, 245.170 422.973, 260.750 423.581 C 271.883 424.015, 279 423.929, 279 423.360 C 279 422.449, 272.590 417.259, 264.668 411.757 L 260.719 409.014 255.202 412.171 L 249.684 415.328 247.842 413.053 C 246.829 411.802, 246 410.215, 246 409.526 C 246 408.564, 244.924 408.628, 241.344 409.807 C 236.740 411.323, 236.665 411.312, 234.496 408.791 C 233.290 407.389, 231.540 403.200, 230.606 399.482 C 229.672 395.765, 228.240 391.431, 227.424 389.852 C 225.721 386.560, 226.502 384.324, 230.434 381.230 L 232.881 379.305 224.818 369.403 C 214.637 356.898, 191.561 324.915, 182.322 310.500 C 163.334 280.879, 139.998 235.098, 111.214 171 C 102.962 152.623, 99.211 142.704, 94.009 125.500 L 87.356 103.500 81.428 103.362 C 78.168 103.287, 71.954 103.608, 67.619 104.077 M 52.166 108.518 C 44.534 112.853, 41.999 115.050, 42.016 117.318 C 42.025 118.518, 45.096 127.182, 48.839 136.572 L 55.646 153.644 53.818 168.572 C 47.791 217.777, 44.986 279.112, 46.840 321.140 C 49.212 374.883, 53.939 402.169, 68.035 443.500 C 100.668 539.178, 141.207 601.995, 198 644.887 C 239.319 676.093, 283.068 692.366, 345 699.565 C 363.542 701.720, 411.181 702.543, 433 701.085 C 477.787 698.093, 517.447 692.130, 546 684.094 C 588.799 672.049, 628.649 649.990, 660.228 620.861 C 672.343 609.686, 691.032 584.136, 705.066 559.561 C 711.282 548.675, 731.248 508.416, 732.429 504.386 C 732.851 502.947, 731.172 504.065, 727.174 507.886 C 723.944 510.974, 719.092 515.525, 716.394 518 C 713.695 520.475, 706.492 528.575, 700.386 536 C 663.931 580.337, 623.426 615.793, 593.500 629.564 C 545.921 651.460, 428.639 662.184, 348.426 651.974 C 313.931 647.583, 286.938 640.009, 262.859 627.964 C 194.334 593.688, 149.815 541.759, 107.809 447.111 C 92.711 413.093, 85.372 384.074, 79.582 335.500 C 74.743 294.913, 72.183 227.397, 73.742 181.500 L 74.694 153.500 66.293 130.500 C 61.672 117.850, 57.572 107.179, 57.182 106.786 C 56.791 106.393, 54.534 107.173, 52.166 108.518 M 251.318 137.393 C 232.118 158.664, 217.534 182.228, 210.496 203.349 C 201.788 229.481, 200.033 255.202, 205.333 279.024 L 206.551 284.500 208.255 271.500 C 210.309 255.825, 211.668 250.275, 217.439 234 C 219.876 227.125, 222.147 220.209, 222.484 218.632 C 222.821 217.055, 223.327 215.994, 223.608 216.274 C 223.888 216.555, 223.375 220.546, 222.468 225.142 C 221.560 229.739, 220.573 239.852, 220.275 247.615 C 219.771 260.748, 219.915 262.363, 222.352 270.857 C 226.647 285.832, 236.019 302.735, 245.884 313.299 C 250.189 317.909, 264.090 329, 265.563 329 C 265.955 329, 265.997 326.629, 265.656 323.731 C 265.070 318.745, 266.281 300.403, 267.554 295 C 268.062 292.842, 267.585 293.100, 264.071 296.879 C 258.469 302.904, 258.951 301.173, 264.849 294.086 C 268.025 290.270, 270.121 286.578, 270.925 283.382 C 273.618 272.688, 281.678 255.175, 292.501 236.500 C 294.194 233.579, 294.145 233.093, 290.642 218 C 285.983 197.926, 282.999 183.328, 283.005 180.640 C 283.011 177.734, 293.634 156.489, 300.408 145.834 L 305.917 137.169 294.709 137.718 C 282.230 138.330, 269.942 137.017, 261.510 134.171 L 255.928 132.286 251.318 137.393 M 221.940 147.361 C 207.328 159.421, 172.902 171.656, 147.117 173.953 C 139.602 174.623, 139.226 174.739, 144.178 174.861 C 157.196 175.180, 178.026 170.583, 193.936 163.880 C 199.196 161.663, 204.400 159.592, 205.500 159.277 C 207.435 158.722, 207.431 158.781, 205.365 161.102 C 200.095 167.021, 186.405 187.227, 182.781 194.436 C 178.528 202.894, 174.585 216.659, 173.596 226.500 C 173.046 231.975, 173.159 231.748, 174.880 223.908 C 179.273 203.896, 184.855 191.570, 196.504 176.155 C 203.395 167.035, 216.711 153.268, 225.444 146.233 C 227.614 144.485, 229.162 142.828, 228.884 142.551 C 228.606 142.273, 225.482 144.438, 221.940 147.361 M 586.363 144.038 C 580.708 145.158, 567.090 152.202, 560.146 157.599 C 559.952 157.750, 561.168 162.065, 562.848 167.187 C 564.529 172.309, 566.203 178.203, 566.570 180.285 C 567.053 183.031, 569.818 187.249, 576.635 195.641 C 585.677 206.770, 591.215 215.193, 596.070 225.201 C 597.324 227.786, 598.722 229.672, 599.175 229.392 C 600.327 228.680, 600.191 217.770, 598.933 210.018 C 598.355 206.454, 596.602 200.491, 595.038 196.768 C 591.988 189.509, 591.840 187.894, 594.726 193.358 C 595.702 195.206, 600.550 200.080, 605.500 204.191 C 618.392 214.897, 625.473 222.900, 635.712 238.338 L 644.719 251.918 646.851 243.709 C 650.655 229.065, 651.958 222.467, 653.080 212.148 C 654.009 203.614, 653.925 200.704, 652.550 193.755 C 649.574 178.714, 639.233 161.012, 629.062 153.545 C 617.065 144.739, 600.949 141.151, 586.363 144.038 M 372.466 270.250 C 373.611 294.926, 375.896 319.220, 377.031 318.786 C 377.442 318.629, 379.313 316.653, 381.189 314.395 C 385.155 309.622, 395.260 300.444, 400.414 296.933 C 402.379 295.595, 403.964 294.275, 403.936 294 C 403.909 293.725, 401.699 291.835, 399.026 289.800 C 394.059 286.019, 386.086 276.178, 377.514 263.250 C 374.870 259.262, 372.504 256, 372.256 256 C 372.008 256, 372.103 262.413, 372.466 270.250 M 402 259.532 C 402 259.825, 402.643 261.603, 403.428 263.483 C 404.780 266.717, 405.030 266.852, 408.064 265.982 C 409.828 265.476, 411.399 264.934, 411.555 264.778 C 411.712 264.622, 409.625 263.258, 406.920 261.747 C 404.214 260.237, 402 259.240, 402 259.532 M 414.500 266.626 C 404.591 268.577, 401.913 269.246, 402.332 269.665 C 402.599 269.933, 407.472 269.451, 413.159 268.595 C 418.847 267.738, 425.075 266.876, 427 266.679 C 428.925 266.482, 427.350 266.300, 423.500 266.276 C 419.650 266.252, 415.600 266.409, 414.500 266.626 M 391 295.961 C 389.075 296.991, 385.700 299.766, 383.500 302.128 L 379.500 306.422 384.136 302.296 C 386.685 300.026, 390.173 297.445, 391.886 296.559 C 393.599 295.673, 395 294.735, 395 294.474 C 395 293.827, 394.964 293.840, 391 295.961 M 321.500 302.253 C 323.700 304.204, 325.677 305.631, 325.893 305.424 C 326.579 304.767, 324.263 302.562, 320.827 300.603 C 317.614 298.772, 317.637 298.828, 321.500 302.253 M 296.500 302.871 C 291.844 304.998, 285.026 312.069, 282.099 317.805 L 280.057 321.809 282.593 326.579 C 283.988 329.202, 285.939 332.378, 286.928 333.636 C 288.699 335.887, 288.720 335.817, 288.243 329.158 C 287.850 323.662, 288.143 321.639, 289.807 318.379 C 293.232 311.665, 297.622 309.443, 301.152 312.638 C 304.679 315.830, 302.916 321, 298.300 321 C 295.473 321, 295.339 323.360, 297.587 333.500 C 298.440 337.350, 299.267 341.751, 299.424 343.281 C 300.008 348.967, 309.542 355.684, 315.457 354.574 C 317.214 354.244, 319.391 353.418, 320.294 352.737 C 322.221 351.284, 323.687 342.397, 324.579 326.750 C 324.921 320.760, 325.593 316.248, 326.096 316.559 C 326.593 316.867, 326.997 316.529, 326.994 315.809 C 326.982 313.398, 318.658 304.749, 314.556 302.886 C 309.383 300.537, 301.625 300.530, 296.500 302.871 M 408 305 C 403.932 309.068, 406.655 316.012, 412.307 315.985 C 416.058 315.967, 417.292 315.275, 418.847 312.322 C 422.162 306.023, 413.097 299.903, 408 305 M 418.362 316.500 C 417.481 318.796, 418.717 321, 420.885 321 C 423.221 321, 424.066 319.153, 422.830 316.750 C 421.727 314.606, 419.144 314.461, 418.362 316.500 M 519.535 320.250 C 517.054 333.176, 513.888 342.905, 507.265 357.965 C 506.293 360.177, 518.907 349.979, 521.753 346.252 C 525.373 341.514, 526.906 336.373, 526.956 328.815 C 527.013 320.225, 525.824 317, 522.604 317 C 520.640 317, 520.036 317.639, 519.535 320.250 M 302 323 C 302 324.646, 302.518 325.065, 304.250 324.820 C 305.488 324.644, 306.500 323.825, 306.500 323 C 306.500 322.175, 305.488 321.356, 304.250 321.180 C 302.518 320.935, 302 321.354, 302 323 M 267.090 329.857 C 267.041 330.603, 266.383 330.977, 265.630 330.688 C 264.643 330.309, 265.089 332.864, 267.228 339.831 C 270.660 351.013, 272.335 353.722, 271.343 346.487 C 270.575 340.881, 267.228 327.793, 267.090 329.857 M 559.597 340.942 C 556.900 343.052, 552.111 346.013, 548.954 347.522 L 543.215 350.265 547.107 356.288 C 551.149 362.541, 551.388 363.550, 551.183 373.500 C 551.065 379.205, 551.111 379.328, 552.133 376 C 553.973 370.009, 552.572 362.435, 548.487 356.282 C 546.489 353.274, 545 350.696, 545.177 350.554 C 545.355 350.413, 547.975 349.170, 551 347.793 C 554.025 346.416, 558.525 343.443, 561 341.186 C 566.646 336.037, 566.006 335.926, 559.597 340.942 M 306.830 339.178 C 306.098 339.551, 304.693 340.106, 303.707 340.413 C 301.662 341.049, 302.331 342.927, 306.676 348.750 C 308.662 351.411, 309.784 352, 312.864 352 C 317.374 352, 322 347.857, 322 343.818 C 322 341.180, 319.836 338.497, 318.658 339.675 C 318.296 340.037, 318 339.888, 318 339.344 C 318 338.245, 308.924 338.110, 306.830 339.178 M 426.753 341.247 C 425.789 342.211, 424.380 343, 423.622 343 C 421.083 343, 419.744 345.631, 420.983 348.186 C 421.867 350.007, 421.572 349.870, 419.597 347.539 C 416.554 343.948, 415.270 344.689, 417.400 348.807 C 421.399 356.540, 431.840 361.842, 440.683 360.630 C 445.245 360.005, 452.650 356.398, 454.689 353.808 C 456.041 352.091, 457.239 345.734, 456.075 346.454 C 454.691 347.309, 452 345.948, 452 344.393 C 452 342.661, 450.344 342.560, 449.662 344.250 C 449.341 345.046, 449.129 344.909, 449.079 343.872 C 448.929 340.785, 446.208 339.811, 437.285 339.651 C 430.111 339.523, 428.186 339.814, 426.753 341.247 M 339.692 370.136 C 340.824 371.268, 342.530 372.038, 343.482 371.847 C 344.681 371.607, 344.047 370.973, 341.424 369.789 L 337.633 368.078 339.692 370.136 M 243.939 374.559 C 240.330 376.484, 235.248 379.958, 232.645 382.280 L 227.913 386.500 231.091 396 C 234.755 406.952, 236.405 409.358, 239.706 408.557 C 240.968 408.250, 243.069 407.740, 244.375 407.423 C 246.354 406.942, 246.930 407.359, 247.823 409.923 C 249.128 413.664, 249.671 413.702, 254.610 410.398 C 260.080 406.739, 263.924 402.988, 265.711 399.564 C 268.793 393.660, 265.441 379.350, 259.610 373.519 C 256.124 370.033, 251.896 370.313, 243.939 374.559 M 265.587 380.555 C 269.539 390.012, 269.295 399.613, 265.004 403.496 C 262.313 405.931, 262.480 407.806, 265.510 409.186 C 267.661 410.167, 268.367 410.004, 270.454 408.044 C 275.243 403.544, 276.299 399.707, 274.955 391.682 C 273.881 385.264, 273.323 384.101, 269.710 380.750 C 264.664 376.070, 263.694 376.024, 265.587 380.555 M 293.577 393.250 C 298.191 399.879, 308.873 413.639, 313.100 418.399 C 313.539 418.894, 312.802 415.519, 311.461 410.899 C 310.121 406.280, 308.563 400.630, 307.999 398.344 C 307.028 394.407, 306.506 393.948, 298.078 389.594 C 293.185 387.068, 288.879 385, 288.508 385 C 288.137 385, 290.418 388.712, 293.577 393.250 M 310.003 398.731 C 310.012 401.484, 315.425 418.951, 317.118 421.690 C 319.836 426.088, 321.798 427.016, 329.809 427.687 C 337.880 428.364, 366.954 426.283, 368.608 424.910 C 369.254 424.375, 371.709 423.378, 374.065 422.696 C 381.212 420.627, 379.639 418.049, 371.208 418.014 C 361.794 417.975, 342.846 412.108, 324.436 403.532 C 314.870 399.077, 309.998 397.456, 310.003 398.731 M 381 398.922 C 382.925 399.302, 385.696 400.400, 387.157 401.361 C 388.680 402.362, 390.065 402.704, 390.401 402.160 C 391.167 400.921, 383.740 397.967, 380.230 398.115 C 377.843 398.216, 377.940 398.317, 381 398.922 M 217.391 415.250 C 219.374 422.395, 219.464 421.999, 215.858 422.011 C 209.778 422.031, 205.299 423.187, 202.427 425.476 L 199.597 427.733 202.195 430.820 C 203.624 432.518, 206.049 437.865, 207.585 442.703 C 209.429 448.512, 211.352 452.480, 213.246 454.384 C 215.891 457.043, 216.519 457.220, 221.307 456.651 C 233.146 455.245, 247.192 453.141, 247.625 452.709 C 247.879 452.454, 247.137 447.578, 245.975 441.873 C 243.863 431.510, 240.423 424.392, 235.280 419.749 C 232.864 417.568, 221.779 413, 218.903 413 C 217.169 413, 216.884 413.424, 217.391 415.250 M 458.642 420.041 C 458.054 422.978, 458.962 425.574, 461.836 429.174 C 462.973 430.598, 462.940 430.814, 461.615 430.620 C 460.759 430.494, 459.745 430.078, 459.362 429.696 C 458.241 428.575, 457 428.894, 457 430.304 C 457 431.022, 455.638 433.756, 453.973 436.382 C 451.429 440.393, 449.741 441.712, 443.396 444.643 C 439.244 446.562, 427.893 450.133, 418.173 452.579 C 393.444 458.802, 393.643 458.695, 391.475 466.847 C 390.502 470.506, 388.631 475.655, 387.316 478.289 L 384.927 483.078 390.305 485.456 C 400.919 490.150, 421.052 497.005, 434.232 500.413 C 446.174 503.500, 464.136 507.147, 464.717 506.603 C 464.836 506.491, 465.447 502.053, 466.073 496.741 C 467.741 482.600, 466.851 441.864, 464.749 436.123 C 463.868 433.716, 463.539 432.141, 464.018 432.623 C 465.030 433.641, 474 456.574, 474 458.143 C 474 458.723, 474.601 460.616, 475.335 462.349 C 478.273 469.279, 480.591 477.116, 484.613 493.710 C 485.468 497.238, 506 487.003, 506 483.049 C 506 479.765, 504.127 479.732, 500.070 482.944 C 496.469 485.797, 489.131 489.522, 488.519 488.809 C 488.374 488.639, 487.291 484.071, 486.113 478.658 C 484.936 473.245, 483.580 468.070, 483.102 467.158 C 482.623 466.246, 479.202 457.400, 475.499 447.500 C 471.202 436.011, 467.731 428.320, 465.902 426.237 C 464.327 424.442, 462.342 421.629, 461.493 419.987 C 460.644 418.344, 459.791 417, 459.599 417 C 459.407 417, 458.976 418.368, 458.642 420.041 M 377.335 423.758 C 376.527 424.281, 377.893 427.427, 381.784 434.007 C 384.872 439.228, 388.817 446.749, 390.551 450.719 C 393.411 457.271, 393.867 457.818, 395.486 456.634 C 397.171 455.402, 397.179 455.057, 395.629 450.415 C 393.382 443.685, 381.789 423.577, 379.973 423.260 C 379.163 423.118, 377.976 423.342, 377.335 423.758 M 243.983 429.250 C 249.540 441.873, 251.341 470.694, 247.654 487.983 C 246.659 492.648, 245.767 496.923, 245.672 497.483 C 245.578 498.042, 247.587 498.635, 250.139 498.800 L 254.777 499.100 255.883 492.749 C 259.606 471.370, 259.847 451.258, 256.563 436 C 254.029 424.226, 254.632 425, 247.989 425 L 242.112 425 243.983 429.250 M 366.802 427.531 C 365.562 428.771, 373.337 459.877, 375.882 463.857 C 376.918 465.476, 381 464.490, 381 462.620 C 381 461.935, 379.721 457.578, 378.159 452.938 C 376.596 448.297, 374.510 441.125, 373.522 437 C 372.535 432.875, 371.283 428.938, 370.741 428.250 C 369.724 426.960, 367.736 426.597, 366.802 427.531 M 376 439.678 C 376 441.546, 381.527 458.861, 382.404 459.737 C 382.637 459.971, 383.759 459.664, 384.896 459.056 C 386.908 457.979, 386.919 457.836, 385.286 453.725 C 383.378 448.920, 380.461 443.610, 377.809 440.115 C 376.166 437.949, 376 437.909, 376 439.678 M 382.650 469.250 C 378.581 478.407, 378.234 480.492, 380.627 481.410 C 383.818 482.635, 387.242 477.633, 389.081 469.059 C 389.978 464.877, 389.905 463.762, 388.652 462.509 C 387.822 461.679, 386.957 461, 386.730 461 C 386.502 461, 384.667 464.712, 382.650 469.250 M 313 466.775 C 303.529 467.819, 275.357 472.355, 274.723 472.938 C 273.703 473.878, 275.887 484, 277.110 484 C 278.535 484, 308.956 478.027, 313.250 476.904 C 316.625 476.021, 316.993 475.602, 316.930 472.711 C 316.826 467.960, 315.834 466.463, 313 466.775 M 377.814 467.044 C 376.887 467.585, 371.085 470.055, 364.921 472.532 C 354.967 476.532, 352.154 478.271, 339.759 488.085 C 332.084 494.162, 321.607 502.041, 316.476 505.593 C 309.470 510.444, 307.009 512.731, 306.593 514.776 C 305.127 521.977, 304.014 531.004, 304.008 535.750 C 304 540.817, 304.096 540.999, 306.750 540.980 C 313.082 540.935, 323.706 538.784, 333.939 535.476 L 344.857 531.946 356.518 513.844 C 362.932 503.888, 369.688 492.987, 371.532 489.621 C 374.456 484.282, 382 467.555, 382 466.411 C 382 465.668, 379.534 466.041, 377.814 467.044 M 469 482 C 469 483.659, 469.667 484, 472.906 484 C 476.320 484, 476.747 483.748, 476.290 482 C 475.897 480.497, 474.926 480, 472.383 480 C 469.667 480, 469 480.394, 469 482" stroke="none" fill="#3a3c37" fill-rule="evenodd"/><path d="M 182.058 33.439 C 179.493 36.169, 179.455 35.252, 182.952 54.863 C 187.347 79.506, 195.175 97.291, 208.864 113.740 L 213.749 119.610 203.124 127.207 C 192.817 134.576, 188.599 137.040, 148.757 158.964 C 138.449 164.636, 129.505 169.891, 128.882 170.642 C 127.114 172.773, 127.549 176.994, 129.766 179.211 C 131.621 181.065, 133.131 181.233, 148.641 181.307 C 160.893 181.366, 167.410 180.944, 172.489 179.766 C 176.333 178.874, 179.644 178.311, 179.848 178.514 C 180.052 178.718, 179.269 180.218, 178.108 181.848 C 176.948 183.477, 174.210 188.566, 172.024 193.155 C 167.397 202.868, 165.443 212.635, 164.444 231.035 C 163.801 242.886, 163.875 243.636, 165.956 246.250 C 169.495 250.696, 173.963 250.082, 180.517 244.250 C 183.453 241.638, 187.289 238.657, 189.041 237.626 L 192.228 235.752 191.555 242.626 C 190.456 253.848, 194.039 284.178, 197.597 293.771 C 199.502 298.907, 203.616 301.482, 208.462 300.573 C 211.574 299.989, 215.330 296.872, 216.139 294.200 C 216.356 293.485, 219.159 298.098, 222.368 304.451 C 229.275 318.126, 233.923 323.173, 244.860 328.874 C 250.459 331.794, 252.961 333.745, 254.224 336.179 C 256.925 341.380, 260.973 355.122, 260.987 359.135 L 261 362.770 254.750 362.278 C 250.017 361.906, 246.972 362.305, 242.207 363.919 L 235.913 366.050 233.207 362.884 C 226.742 355.321, 200.087 318.272, 191.562 305 C 171.903 274.395, 150.433 232.213, 120.846 166.064 C 112.260 146.868, 108.525 137.004, 103.429 120.064 C 96.271 96.268, 95.165 94.341, 87.864 92.930 C 81.759 91.751, 60.237 91.807, 55.894 93.013 C 50.998 94.373, 41.203 100.834, 35.059 106.756 C 30.882 110.782, 30 112.240, 30 115.115 C 30 117.102, 33.005 126.068, 37 136 C 40.850 145.572, 44 154.835, 44 156.586 C 44 158.337, 42.891 168.033, 41.535 178.134 C 38.424 201.311, 37.542 210.506, 34.928 247 C 33.142 271.943, 32.892 282.293, 33.309 314 C 34.120 375.605, 38.026 401.691, 53.449 448.500 C 82.600 536.971, 122.005 602.946, 171 645.312 C 198.213 668.842, 220.532 682.911, 248.035 693.868 C 306.016 716.970, 377.835 723.599, 465.500 713.942 C 548.069 704.847, 602.974 683.749, 653 641.896 C 678.009 620.972, 694.984 599.953, 715.506 564.500 C 722.667 552.130, 737.213 523.262, 743.824 508.302 C 746.546 502.143, 749.724 495.895, 750.886 494.417 C 752.356 492.549, 753 490.300, 753 487.037 C 753 478.762, 745.159 469.276, 727.028 455.619 C 714.957 446.526, 713.878 446.363, 700.105 451.558 C 694.937 453.508, 690.133 454.881, 689.428 454.611 C 688.723 454.340, 687.626 454.746, 686.989 455.513 C 686.353 456.280, 676.532 459.915, 665.166 463.591 C 653.800 467.267, 643.805 470.609, 642.956 471.018 C 639.580 472.641, 605.098 482.273, 585.874 486.962 C 562.115 492.758, 542.513 496.485, 525.006 498.536 C 508.103 500.517, 507.680 500.486, 512.390 497.635 C 519.756 493.176, 520.701 487.615, 515.973 476.529 C 512.636 468.704, 512.620 468.647, 513.989 469.493 C 514.561 469.847, 514.720 469.433, 514.365 468.509 C 514.028 467.632, 513.514 467.152, 513.222 467.444 C 512.931 467.736, 510.236 463.506, 507.234 458.044 C 504.232 452.582, 495.767 440.101, 488.423 430.307 L 475.071 412.500 483.285 405.011 C 487.803 400.892, 493.300 395.668, 495.500 393.402 C 501.321 387.408, 505.308 385, 509.415 385 C 513.067 385, 522 388.557, 522 390.011 C 522 390.446, 523.530 391.705, 525.400 392.808 C 527.270 393.912, 530.655 397.325, 532.921 400.394 C 535.374 403.714, 538.082 406.233, 539.608 406.617 C 543.279 407.538, 547.083 404.325, 549.045 398.648 C 549.937 396.067, 552.064 392.588, 553.773 390.918 C 557.097 387.668, 561 380.489, 561 377.625 C 561 376.666, 561.369 376.110, 561.820 376.389 C 563.111 377.187, 560.316 361.511, 558.563 358.122 C 557.083 355.260, 557.105 355.014, 558.922 354.042 C 562.673 352.034, 574 338.047, 574 335.423 C 574 330.873, 570.226 328.379, 562.133 327.582 C 558.142 327.189, 555.018 326.559, 555.189 326.183 C 555.360 325.808, 558.971 318.525, 563.213 310 C 567.455 301.475, 572.717 289.155, 574.906 282.623 C 578.158 272.919, 579.537 270.150, 582.443 267.488 C 586.856 263.446, 587.280 259.118, 583.534 256.333 L 581.068 254.500 581.784 237.074 L 582.500 219.649 589.354 229.324 C 595.672 238.243, 596.468 239, 599.532 239 C 603.705 239, 606.351 235.872, 608.003 228.988 C 608.661 226.245, 609.567 224, 610.016 224 C 611.184 224, 623.870 237.879, 632.701 248.817 C 641.212 259.359, 644.034 261.099, 647.945 258.216 C 651.067 255.915, 655.471 244.013, 660.051 225.500 C 662.609 215.161, 663.291 210.248, 663.384 201.500 C 663.528 187.859, 661.871 181.209, 654.789 167 C 650.451 158.299, 648.180 155.118, 641.527 148.431 C 627.716 134.547, 615.541 129.544, 595.500 129.516 C 584.031 129.501, 583.212 129.641, 577 132.678 C 573.425 134.426, 569.101 136.793, 567.390 137.937 L 564.281 140.019 559.767 132.259 C 549.777 115.084, 536.106 98.850, 521.178 86.432 L 512.299 79.047 511.751 60.774 C 511.157 40.950, 510.427 37.834, 505.944 35.977 C 501.928 34.313, 499.802 35.351, 493.287 42.156 C 490.104 45.481, 484.886 50.473, 481.692 53.250 L 475.884 58.299 465.692 55.151 C 444.626 48.644, 441.790 48.469, 370 49.246 C 363.675 49.315, 355.125 48.778, 351 48.053 C 342.140 46.495, 312.233 47.125, 285.500 49.431 C 251.911 52.329, 236.551 53.052, 230.913 52 C 224.107 50.731, 209.659 43.820, 198.645 36.567 C 189.087 30.273, 185.642 29.623, 182.058 33.439 M 187 39.509 C 187 40.394, 187.386 40.879, 187.858 40.588 C 188.330 40.296, 191.142 41.883, 194.108 44.114 C 202.587 50.493, 216.913 58.618, 223.718 60.908 C 231.692 63.590, 240.582 63.611, 274 61.023 C 313.828 57.938, 331.605 57.176, 343.385 58.050 C 359.057 59.213, 364.018 61.837, 379.058 76.913 C 385.415 83.286, 393.465 92.451, 396.946 97.279 C 400.427 102.107, 403.475 105.858, 403.719 105.615 C 403.963 105.371, 403.656 104.226, 403.038 103.071 C 401.669 100.512, 401.454 100.589, 414 99.141 C 427.778 97.551, 434.042 95.666, 447.500 89.057 C 466.732 79.613, 476.021 72.868, 490.284 57.989 C 501.299 46.499, 502.900 45.170, 503.287 47.193 C 503.610 48.887, 503.764 48.614, 503.864 46.167 C 503.939 44.333, 503.640 42.983, 503.199 43.167 C 502.758 43.350, 498.821 47.366, 494.449 52.092 C 483.139 64.316, 477.474 69, 473.996 69 C 472.411 69, 467.151 67.678, 462.307 66.062 C 444.696 60.188, 419.252 57.725, 386.446 58.720 C 372.880 59.132, 364.717 58.835, 353 57.505 C 335.116 55.474, 326.130 55.716, 277.122 59.547 C 238.877 62.537, 233.110 62.590, 224.855 60.027 C 217.635 57.784, 206.302 51.561, 196.373 44.385 C 187.093 37.679, 187 37.630, 187 39.509 M 188.086 43.143 C 187.873 47.227, 194.377 69.306, 198.046 76.953 C 204.667 90.750, 208.810 96.771, 219.236 107.748 C 230.613 119.727, 230.674 118.030, 218.530 127.490 C 201.801 140.521, 178.347 154.248, 152.747 165.991 C 147.435 168.428, 143.237 170.570, 143.419 170.752 C 144.038 171.371, 170.451 159.251, 181.500 153.279 C 194.823 146.078, 205.569 139.426, 221.605 128.453 L 233.710 120.170 236.605 122.138 C 238.197 123.220, 242.650 125.710, 246.500 127.670 C 250.350 129.631, 253.660 131.379, 253.855 131.556 C 254.051 131.733, 250.965 135.618, 246.999 140.189 C 237.438 151.206, 226.077 166.326, 221.533 174.079 C 217.087 181.665, 209.876 198.337, 207.004 207.672 L 204.903 214.500 196.942 218.903 C 191.241 222.057, 186.730 225.651, 181.046 231.572 L 173.111 239.837 172.724 236.169 C 172.390 233.013, 172.313 233.184, 172.168 237.397 L 172 242.294 181.250 233.379 C 190.008 224.938, 200.997 217.664, 202.588 219.255 C 202.977 219.644, 202.718 224.808, 202.012 230.731 C 200.244 245.571, 200.585 259.805, 203.079 275.257 C 206.456 296.178, 207.075 296.516, 209 278.500 C 210.313 266.219, 213.124 252.060, 215.750 244.500 L 217.487 239.500 218.102 253 C 218.624 264.451, 219.190 267.900, 221.830 275.723 C 228.863 296.556, 237.924 310.257, 252.218 321.670 C 259.957 327.849, 262.647 331.985, 267.065 344.500 C 269.842 352.366, 270.176 354.387, 269.714 360.540 C 269.408 364.617, 269.627 368.406, 270.234 369.540 C 270.810 370.618, 274.931 375.100, 279.391 379.500 C 286.964 386.971, 306.114 411.891, 300.909 407.500 C 299.604 406.400, 292.081 399.425, 284.189 392 C 266.753 375.595, 259.087 370, 254.044 370 C 251.982 370, 247.300 371.506, 243.088 373.525 C 238.575 375.688, 234.988 376.814, 233.805 376.438 C 230.250 375.310, 202.911 339.176, 185.448 312.526 C 165.480 282.052, 143.264 238.789, 112.772 171 C 104.038 151.582, 100.370 141.937, 95.087 124.500 L 88.421 102.500 74.212 102.579 L 60.003 102.659 52.751 106.366 C 48.763 108.405, 44 111.313, 42.168 112.828 L 38.835 115.583 46.510 134.767 L 54.186 153.951 52.616 165.725 C 46.775 209.543, 44.597 244.361, 44.594 294 C 44.591 339.488, 45.364 353.150, 49.574 382 C 54.919 418.630, 72.968 472.193, 95.907 519.500 C 116.368 561.698, 137.881 592.934, 165.477 620.517 C 214.551 669.568, 266.616 693.488, 344.022 702.547 C 362.578 704.719, 408.152 705.537, 431 704.108 C 491.019 700.356, 538.890 691.315, 575.500 676.818 C 614.329 661.442, 654.262 633.311, 676.693 605.533 C 696.179 581.401, 720.248 538.923, 736.994 499.110 L 741.972 487.275 740.344 482.495 C 739.448 479.866, 737.084 476.091, 735.092 474.107 C 730.090 469.127, 714.400 457, 712.958 457 C 712.308 457, 707.439 458.625, 702.138 460.611 C 696.837 462.597, 691.459 464.411, 690.187 464.642 C 688.914 464.873, 684.189 466.579, 679.687 468.432 C 671.424 471.833, 646.603 479.897, 624.500 486.361 C 566.347 503.367, 513.954 511.894, 485.439 508.994 C 479.657 508.406, 473.256 507.366, 471.214 506.684 L 467.500 505.442 467.740 499.971 C 468.074 492.347, 468.317 492, 473.338 492 C 477.646 492, 477.751 492.079, 478.358 495.750 C 478.699 497.813, 478.983 500.738, 478.989 502.250 C 478.996 503.912, 479.544 505, 480.376 505 C 484.170 505, 505.365 492.952, 508.670 488.916 C 509.593 487.789, 508.828 484.958, 505.044 475.494 C 499.996 462.870, 495.974 455.244, 488.449 444.028 C 483.306 436.363, 469.825 419.457, 461.821 410.636 L 456.500 404.771 456.493 415.136 C 456.487 423.882, 456.116 426.321, 454.116 430.757 C 449.914 440.083, 445.306 442.771, 422 449.491 C 415.675 451.314, 408.438 453.115, 405.917 453.492 C 401.351 454.174, 401.333 454.165, 401.333 451.221 C 401.333 446.707, 387.320 421.118, 384.454 420.399 C 381.898 419.758, 380.941 417.392, 382.038 414.427 C 383.208 411.265, 399.170 396.698, 407.716 390.996 C 416.636 385.043, 417.790 384.090, 413.338 386.353 C 407.991 389.071, 394.929 399.439, 386.091 407.982 L 377.681 416.109 369.091 415.062 C 343.953 412, 309.223 396.276, 281.341 375.336 C 272.703 368.849, 271.779 366.759, 272.625 355.614 C 273.097 349.391, 272.604 343.305, 270.511 329.500 C 267.704 310.995, 267.624 304.350, 270.088 294.564 C 271.109 290.511, 272.010 289.353, 276.389 286.466 C 281.830 282.878, 291.611 279.880, 304.250 277.925 C 314.963 276.267, 314.129 274.727, 302.750 275.153 C 294.513 275.462, 292.643 275.909, 285.675 279.236 C 281.372 281.291, 276.690 283.885, 275.273 285 C 273.855 286.115, 272.539 286.873, 272.349 286.683 C 272.160 286.493, 273.065 283.224, 274.362 279.419 C 277.548 270.068, 285.249 254.882, 290.702 247.199 C 295.783 240.039, 296.646 240.095, 299.504 247.764 C 302.566 255.979, 314.614 279.453, 321.117 289.871 C 330.823 305.423, 342.577 320.641, 352.496 330.500 C 363.311 341.249, 382.376 357.338, 382.804 356.075 C 382.970 355.582, 381.993 349.401, 380.631 342.339 C 377.245 324.783, 377.155 323.605, 379.165 323.212 C 380.103 323.028, 381.085 323.694, 381.416 324.737 C 381.739 325.755, 384.001 328.547, 386.442 330.943 L 390.880 335.299 388.472 327.899 L 386.063 320.500 390.282 316.638 C 392.602 314.514, 396.568 311.043, 399.095 308.925 L 403.689 305.074 404.972 313.787 C 407.652 331.993, 415.647 354.505, 421.327 359.838 C 423.363 361.751, 425.265 362.276, 431.769 362.722 C 444.577 363.599, 456.162 360.162, 460.614 354.162 L 463.332 350.500 460.166 353.437 C 456.624 356.723, 456.333 356.142, 458.478 350.063 C 460.038 345.641, 462.979 324.178, 463.030 316.837 C 463.085 309.032, 464.945 315.069, 466.062 326.680 C 466.635 332.631, 467.218 337.911, 467.357 338.414 C 467.775 339.929, 471.866 319.899, 472.311 314.158 L 472.724 308.816 464.686 301.971 C 460.264 298.206, 454.555 293.987, 451.999 292.596 C 442.883 287.634, 429.235 285.619, 420.993 288.016 C 417.927 288.909, 417.281 288.766, 415.708 286.854 C 412.791 283.307, 406.719 271.948, 407.384 271.283 C 407.721 270.945, 410.713 270.298, 414.033 269.844 C 420.045 269.022, 420.113 269.041, 431.784 274.882 C 444.971 281.481, 454.671 285.183, 463.500 286.985 C 473.401 289.007, 474.760 289.781, 476.415 294.353 C 480.013 304.293, 481.464 315.275, 481.453 332.500 C 481.441 351.375, 479.835 362.859, 475.245 376.893 C 472.850 384.218, 471.952 385.705, 468.194 388.576 C 465.826 390.385, 462.451 392.175, 460.694 392.553 C 458.937 392.931, 456.262 393.873, 454.750 394.646 C 453.238 395.419, 452 395.694, 452 395.257 C 452 393.903, 444.020 384.728, 440.733 382.303 C 438.281 380.494, 436.420 380.028, 432.056 380.131 L 426.500 380.262 432.191 380.993 C 439.989 381.994, 446.868 388.001, 453.042 399.201 L 455.964 404.500 455.982 400.359 C 455.999 396.512, 456.267 396.111, 459.750 394.721 C 461.813 393.898, 465.244 392.745, 467.375 392.158 L 471.250 391.092 470.656 395.296 C 470.330 397.608, 469.822 400.850, 469.527 402.500 C 469.232 404.150, 469.858 403.025, 470.917 400 C 475.799 386.064, 478.278 376.749, 480.721 363.169 C 484.204 343.813, 484.360 321.494, 481.139 303.651 C 479.963 297.133, 479 291.446, 479 291.011 C 479 290.576, 486.762 290.236, 496.250 290.254 C 505.738 290.272, 515.033 289.946, 516.907 289.529 L 520.315 288.772 519.691 301.136 C 518.270 329.314, 512.652 347.201, 497.311 372.394 C 490.631 383.365, 485.339 390.293, 476.012 400.280 C 472.047 404.526, 469.267 408, 469.835 408 C 470.403 408, 476.125 402.163, 482.551 395.028 C 492.737 383.719, 494.956 381.770, 499.867 379.823 C 508.868 376.254, 515.358 376.796, 523.820 381.824 C 531.170 386.190, 536.125 391.098, 538.757 396.616 C 540.381 400.022, 541.983 401.069, 542.020 398.750 C 542.031 398.063, 542.484 394.427, 543.027 390.671 C 543.916 384.518, 543.773 383.147, 541.575 376.827 C 539.337 370.393, 539.295 369.957, 541.063 371.557 C 542.123 372.516, 544.101 375.596, 545.458 378.400 C 546.816 381.205, 547.923 382.825, 547.918 382 C 547.902 379.204, 543.524 372.303, 537.741 365.957 L 531.981 359.638 536.528 368.734 C 541.426 378.533, 542.719 384.720, 541.529 392.654 L 540.801 397.500 538.984 394 C 536.704 389.611, 531.114 384.350, 524.024 379.922 C 519.054 376.817, 517.855 376.502, 511.024 376.501 C 506.886 376.500, 501.760 376.897, 499.634 377.383 L 495.768 378.266 499.465 372.383 C 501.499 369.147, 508.234 361.550, 514.433 355.500 C 526.948 343.286, 528.404 340.484, 528.468 328.500 C 528.511 320.397, 527.502 317.354, 524.244 315.767 C 521.539 314.449, 521.503 314.308, 521.704 305.744 C 521.816 300.967, 522.392 295.258, 522.984 293.059 C 523.945 289.490, 524.513 288.944, 528.280 287.976 C 539.108 285.193, 543.060 283.794, 550.500 280.107 C 554.900 277.927, 560.474 274.923, 562.887 273.433 L 567.275 270.723 566.546 274.611 C 564.609 284.948, 552.403 313.101, 542.227 330.701 C 539.548 335.335, 537.992 337.003, 536.071 337.301 C 534.657 337.521, 537.550 337.734, 542.500 337.776 C 547.450 337.818, 553.525 337.454, 556 336.967 C 559.488 336.281, 558.431 336.182, 551.300 336.527 C 545.993 336.783, 541.849 336.565, 541.508 336.012 C 541.182 335.485, 542.953 331.522, 545.443 327.204 C 552.677 314.663, 560.725 297.005, 565.006 284.282 C 567.187 277.802, 568.990 271.825, 569.013 271 C 569.036 270.175, 571.730 267.711, 575 265.524 C 581.220 261.365, 581.218 260.743, 574.980 259.626 L 571.460 258.996 571.480 236.248 C 571.491 223.737, 571.097 208.603, 570.605 202.618 C 569.956 194.739, 570.015 191.842, 570.818 192.118 C 573.294 192.971, 587.108 211.744, 593.212 222.552 C 599.495 233.676, 599.754 233.980, 600.366 230.922 C 601.340 226.052, 601.118 210.900, 600.017 207.060 C 599.477 205.175, 599.240 203.427, 599.491 203.176 C 600.323 202.344, 610.598 210.029, 615.707 215.305 C 622.782 222.611, 628.922 230.460, 637.115 242.671 C 641.624 249.391, 644.535 252.865, 645.145 252.255 C 646.570 250.830, 652.595 225.675, 654.034 215.145 C 655.716 202.836, 654.862 193.370, 651.155 183.239 C 644.934 166.238, 634.083 153.005, 621.402 146.953 C 611.891 142.414, 598.357 140.190, 589.489 141.709 C 583.280 142.773, 573.457 146.935, 564.705 152.212 L 560.909 154.500 558.454 151.694 C 557.104 150.150, 553.508 144.655, 550.464 139.482 C 539.553 120.942, 530.177 109.956, 508.559 90.376 L 500.694 83.253 501.383 78.376 C 501.762 75.694, 502.227 69.225, 502.417 64 C 502.606 58.775, 502.588 56.300, 502.376 58.500 C 499.942 83.741, 496.624 95.271, 484.680 120 C 478.412 132.977, 473.192 141.364, 467.188 148.104 C 463.648 152.079, 462.226 152.899, 456.793 154.104 C 445.310 156.651, 427.773 155.687, 406.500 151.340 C 404.850 151.002, 403.740 150.991, 404.034 151.314 C 404.327 151.637, 410.234 153.048, 417.159 154.450 C 440.988 159.275, 456.081 157.803, 476.953 148.617 C 482.681 146.096, 487.575 144.242, 487.830 144.497 C 488.085 144.752, 486.801 147.992, 484.977 151.698 C 478.252 165.359, 467.164 172.837, 452.253 173.767 C 446.741 174.111, 442.558 173.844, 439.946 172.982 C 431.811 170.297, 435.433 172.769, 445.776 176.961 C 460.901 183.091, 480.825 193.302, 488.220 198.714 C 495.749 204.224, 508.865 215.300, 526.500 231.038 C 552.583 254.316, 554.285 255.423, 570.148 259.433 L 579.153 261.709 571.326 266.725 C 544.212 284.100, 526.862 288.714, 492.246 287.757 C 466.939 287.057, 452.590 283.560, 432.729 273.252 L 425.500 269.500 437.369 269.217 C 448 268.964, 459.893 270.251, 469 272.640 C 470.375 273, 471.235 273.001, 470.910 272.641 C 470.586 272.281, 464.511 270.612, 457.410 268.931 C 447.766 266.648, 441.044 265.729, 430.836 265.301 L 417.173 264.726 407.353 258.430 C 401.951 254.968, 397.378 252.288, 397.190 252.476 C 397.002 252.665, 398.232 255.972, 399.924 259.827 C 401.616 263.681, 403 267.036, 403 267.282 C 403 267.527, 400.980 268.500, 398.510 269.443 C 392.085 271.897, 391.577 273.440, 397.485 272.554 C 400.109 272.161, 402.847 271.612, 403.571 271.335 C 404.412 271.011, 406.031 273.109, 408.069 277.165 C 409.821 280.649, 412.129 284.740, 413.198 286.255 L 415.143 289.010 410.442 291.025 L 405.741 293.040 402.297 290.413 C 393.677 283.838, 385.719 273.865, 377.619 259.487 C 374.528 254.002, 372 248.948, 372 248.257 C 372 247.566, 371.550 247, 371 247 C 369.790 247, 369.790 244.603, 371.001 273.014 C 371.551 285.931, 372.702 302.238, 373.559 309.251 C 374.416 316.263, 374.839 322.451, 374.500 323.001 C 374.160 323.550, 374.295 324, 374.799 324 C 375.303 324, 376.911 329.963, 378.372 337.250 C 379.834 344.538, 381.326 351.613, 381.690 352.972 C 382.327 355.359, 382.197 355.325, 377.950 351.972 C 367.802 343.964, 346.264 321.863, 338.384 311.373 C 310.659 274.465, 295.781 240.086, 287.556 193.925 L 285.031 179.754 288.600 171.627 C 290.563 167.157, 293.774 160.854, 295.736 157.619 C 298.802 152.565, 311.011 136.200, 315.793 130.735 C 317.258 129.060, 317.137 129.040, 313.419 130.343 C 299.002 135.397, 276.034 136.637, 264.500 132.985 C 249.602 128.268, 233.994 118.814, 221.624 107.013 C 205.673 91.796, 196.972 75.787, 190.097 49 C 189.038 44.875, 188.133 42.239, 188.086 43.143 M 371.514 60.877 L 363.529 61.500 368.514 65.164 C 373.946 69.155, 388.950 84.258, 393.420 90.234 C 394.957 92.288, 397.787 94.941, 399.709 96.129 C 402.886 98.093, 404.084 98.232, 412.852 97.660 C 418.159 97.314, 425.200 96.308, 428.500 95.425 C 436.612 93.254, 454.631 84.500, 464.931 77.724 L 473.362 72.178 469.431 70.491 C 451.750 62.905, 438.336 60.808, 405.500 60.498 C 391.200 60.364, 375.906 60.534, 371.514 60.877 M 496.657 95.250 C 492.178 108.246, 482.205 129.323, 475.832 139.263 C 472.624 144.265, 470 148.707, 470 149.134 C 470 150.027, 474.956 148.333, 483.279 144.595 C 486.457 143.168, 489.269 142, 489.529 142 C 492.101 142, 484.931 156.748, 479.330 162.977 C 474.214 168.669, 464.900 173.815, 458.350 174.570 C 447.493 175.822, 447.340 175.599, 465.057 184.335 C 484.489 193.918, 491.934 199.101, 513.500 218.064 C 547.747 248.177, 551.592 251.328, 557.500 254.118 C 560.800 255.677, 564.892 257.230, 566.593 257.570 L 569.686 258.187 570.362 244.721 C 571.026 231.498, 569.888 208.826, 567.917 196 C 562.832 162.904, 548.195 132.881, 525.645 109.288 C 518.263 101.565, 501.408 86.998, 499.856 87 C 499.660 87.001, 498.221 90.713, 496.657 95.250 M 67.619 104.077 C 63.285 104.545, 59.549 105.117, 59.319 105.348 C 59.088 105.578, 62.734 116.177, 67.421 128.901 L 75.942 152.035 75.336 190.768 C 73.845 286.107, 82.163 368.727, 98.130 417.145 C 108.770 449.410, 137.392 505.587, 157.923 534.500 C 189.559 579.051, 228.623 611.357, 274.836 631.186 C 299.491 641.766, 331.672 648.824, 369.500 651.949 C 440.895 657.848, 533.866 648.958, 582.479 631.583 C 606.672 622.936, 632.864 604.120, 664.023 573.002 C 678.493 558.551, 698.695 535.878, 708.893 522.646 L 713.285 516.946 710.529 495.723 C 709.013 484.050, 707.711 471.484, 707.636 467.797 C 707.481 460.149, 707.842 460.277, 697.212 464.099 C 694.304 465.145, 691.280 466, 690.492 466 C 689.704 466, 686.683 467.073, 683.780 468.385 C 677.402 471.265, 647.299 481.158, 626 487.372 C 589.424 498.045, 548.590 506.840, 522.929 509.572 C 481.490 513.985, 433.618 505.845, 387.582 486.557 L 377.378 482.282 372.731 490.391 C 370.175 494.851, 363.180 506.150, 357.186 515.500 C 346.632 531.964, 346.134 532.558, 341.394 534.330 C 327.878 539.383, 304.704 544.066, 302.749 542.139 C 302.336 541.732, 302.751 534.575, 303.670 526.236 L 305.341 511.073 313.455 505.673 C 322.240 499.827, 345.166 481.833, 344.578 481.245 C 344.380 481.047, 339.093 482.438, 332.829 484.337 C 310.554 491.090, 272.004 499.601, 258.903 500.659 C 247.529 501.578, 242.290 500.525, 240.070 496.875 C 238.019 493.502, 233.357 474.452, 232.453 465.749 C 231.706 458.557, 230.176 456.802, 225.755 458.070 C 220.910 459.460, 214.722 459.194, 212.291 457.491 C 209.880 455.802, 206.816 448.334, 205.078 439.910 C 204.185 435.581, 203.243 433.817, 200.903 432.086 C 194.723 427.517, 199.715 422.418, 211.439 421.323 C 217.046 420.800, 217.988 420.448, 217.397 419.101 C 217.011 418.220, 216.484 415.990, 216.226 414.144 C 215.758 410.798, 215.767 410.790, 219.128 411.505 C 222.740 412.274, 234.569 417.748, 239.500 420.932 C 242.061 422.586, 245.170 422.973, 260.750 423.581 C 271.883 424.015, 279 423.929, 279 423.360 C 279 422.449, 272.590 417.259, 264.668 411.757 L 260.719 409.014 255.202 412.171 L 249.684 415.328 247.842 413.053 C 246.829 411.802, 246 410.215, 246 409.526 C 246 408.564, 244.924 408.628, 241.344 409.807 C 236.740 411.323, 236.665 411.312, 234.496 408.791 C 233.290 407.389, 231.540 403.200, 230.606 399.482 C 229.672 395.765, 228.240 391.431, 227.424 389.852 C 225.721 386.560, 226.502 384.324, 230.434 381.230 L 232.881 379.305 224.818 369.403 C 214.637 356.898, 191.561 324.915, 182.322 310.500 C 163.334 280.879, 139.998 235.098, 111.214 171 C 102.962 152.623, 99.211 142.704, 94.009 125.500 L 87.356 103.500 81.428 103.362 C 78.168 103.287, 71.954 103.608, 67.619 104.077 M 52.166 108.518 C 44.534 112.853, 41.999 115.050, 42.016 117.318 C 42.025 118.518, 45.096 127.182, 48.839 136.572 L 55.646 153.644 53.818 168.572 C 47.791 217.777, 44.986 279.112, 46.840 321.140 C 49.212 374.883, 53.939 402.169, 68.035 443.500 C 100.668 539.178, 141.207 601.995, 198 644.887 C 239.319 676.093, 283.068 692.366, 345 699.565 C 363.542 701.720, 411.181 702.543, 433 701.085 C 477.787 698.093, 517.447 692.130, 546 684.094 C 588.799 672.049, 628.649 649.990, 660.228 620.861 C 672.343 609.686, 691.032 584.136, 705.066 559.561 C 711.282 548.675, 731.248 508.416, 732.429 504.386 C 732.851 502.947, 731.172 504.065, 727.174 507.886 C 723.944 510.974, 719.092 515.525, 716.394 518 C 713.695 520.475, 706.492 528.575, 700.386 536 C 663.931 580.337, 623.426 615.793, 593.500 629.564 C 545.921 651.460, 428.639 662.184, 348.426 651.974 C 313.931 647.583, 286.938 640.009, 262.859 627.964 C 194.334 593.688, 149.815 541.759, 107.809 447.111 C 92.711 413.093, 85.372 384.074, 79.582 335.500 C 74.743 294.913, 72.183 227.397, 73.742 181.500 L 74.694 153.500 66.293 130.500 C 61.672 117.850, 57.572 107.179, 57.182 106.786 C 56.791 106.393, 54.534 107.173, 52.166 108.518 M 251.318 137.393 C 232.118 158.664, 217.534 182.228, 210.496 203.349 C 201.788 229.481, 200.033 255.202, 205.333 279.024 L 206.551 284.500 208.255 271.500 C 210.309 255.825, 211.668 250.275, 217.439 234 C 219.876 227.125, 222.147 220.209, 222.484 218.632 C 222.821 217.055, 223.327 215.994, 223.608 216.274 C 223.888 216.555, 223.375 220.546, 222.468 225.142 C 221.560 229.739, 220.573 239.852, 220.275 247.615 C 219.771 260.748, 219.915 262.363, 222.352 270.857 C 226.647 285.832, 236.019 302.735, 245.884 313.299 C 250.189 317.909, 264.090 329, 265.563 329 C 265.955 329, 265.997 326.629, 265.656 323.731 C 265.070 318.745, 266.281 300.403, 267.554 295 C 268.062 292.842, 267.585 293.100, 264.071 296.879 C 258.469 302.904, 258.951 301.173, 264.849 294.086 C 268.025 290.270, 270.121 286.578, 270.925 283.382 C 273.618 272.688, 281.678 255.175, 292.501 236.500 C 294.194 233.579, 294.145 233.093, 290.642 218 C 285.983 197.926, 282.999 183.328, 283.005 180.640 C 283.011 177.734, 293.634 156.489, 300.408 145.834 L 305.917 137.169 294.709 137.718 C 282.230 138.330, 269.942 137.017, 261.510 134.171 L 255.928 132.286 251.318 137.393 M 221.940 147.361 C 207.328 159.421, 172.902 171.656, 147.117 173.953 C 139.602 174.623, 139.226 174.739, 144.178 174.861 C 157.196 175.180, 178.026 170.583, 193.936 163.880 C 199.196 161.663, 204.400 159.592, 205.500 159.277 C 207.435 158.722, 207.431 158.781, 205.365 161.102 C 200.095 167.021, 186.405 187.227, 182.781 194.436 C 178.528 202.894, 174.585 216.659, 173.596 226.500 C 173.046 231.975, 173.159 231.748, 174.880 223.908 C 179.273 203.896, 184.855 191.570, 196.504 176.155 C 203.395 167.035, 216.711 153.268, 225.444 146.233 C 227.614 144.485, 229.162 142.828, 228.884 142.551 C 228.606 142.273, 225.482 144.438, 221.940 147.361 M 586.363 144.038 C 580.708 145.158, 567.090 152.202, 560.146 157.599 C 559.952 157.750, 561.168 162.065, 562.848 167.187 C 564.529 172.309, 566.203 178.203, 566.570 180.285 C 567.053 183.031, 569.818 187.249, 576.635 195.641 C 585.677 206.770, 591.215 215.193, 596.070 225.201 C 597.324 227.786, 598.722 229.672, 599.175 229.392 C 600.327 228.680, 600.191 217.770, 598.933 210.018 C 598.355 206.454, 596.602 200.491, 595.038 196.768 C 591.988 189.509, 591.840 187.894, 594.726 193.358 C 595.702 195.206, 600.550 200.080, 605.500 204.191 C 618.392 214.897, 625.473 222.900, 635.712 238.338 L 644.719 251.918 646.851 243.709 C 650.655 229.065, 651.958 222.467, 653.080 212.148 C 654.009 203.614, 653.925 200.704, 652.550 193.755 C 649.574 178.714, 639.233 161.012, 629.062 153.545 C 617.065 144.739, 600.949 141.151, 586.363 144.038 M 372.466 270.250 C 373.611 294.926, 375.896 319.220, 377.031 318.786 C 377.442 318.629, 379.313 316.653, 381.189 314.395 C 385.155 309.622, 395.260 300.444, 400.414 296.933 C 402.379 295.595, 403.964 294.275, 403.936 294 C 403.909 293.725, 401.699 291.835, 399.026 289.800 C 394.059 286.019, 386.086 276.178, 377.514 263.250 C 374.870 259.262, 372.504 256, 372.256 256 C 372.008 256, 372.103 262.413, 372.466 270.250 M 402 259.532 C 402 259.825, 402.643 261.603, 403.428 263.483 C 404.780 266.717, 405.030 266.852, 408.064 265.982 C 409.828 265.476, 411.399 264.934, 411.555 264.778 C 411.712 264.622, 409.625 263.258, 406.920 261.747 C 404.214 260.237, 402 259.240, 402 259.532 M 414.500 266.626 C 404.591 268.577, 401.913 269.246, 402.332 269.665 C 402.599 269.933, 407.472 269.451, 413.159 268.595 C 418.847 267.738, 425.075 266.876, 427 266.679 C 428.925 266.482, 427.350 266.300, 423.500 266.276 C 419.650 266.252, 415.600 266.409, 414.500 266.626 M 391 295.961 C 389.075 296.991, 385.700 299.766, 383.500 302.128 L 379.500 306.422 384.136 302.296 C 386.685 300.026, 390.173 297.445, 391.886 296.559 C 393.599 295.673, 395 294.735, 395 294.474 C 395 293.827, 394.964 293.840, 391 295.961 M 321.500 302.253 C 323.700 304.204, 325.677 305.631, 325.893 305.424 C 326.579 304.767, 324.263 302.562, 320.827 300.603 C 317.614 298.772, 317.637 298.828, 321.500 302.253 M 296.500 302.871 C 291.844 304.998, 285.026 312.069, 282.099 317.805 L 280.057 321.809 282.593 326.579 C 283.988 329.202, 285.939 332.378, 286.928 333.636 C 288.699 335.887, 288.720 335.817, 288.243 329.158 C 287.850 323.662, 288.143 321.639, 289.807 318.379 C 293.232 311.665, 297.622 309.443, 301.152 312.638 C 304.679 315.830, 302.916 321, 298.300 321 C 295.473 321, 295.339 323.360, 297.587 333.500 C 298.440 337.350, 299.267 341.751, 299.424 343.281 C 300.008 348.967, 309.542 355.684, 315.457 354.574 C 317.214 354.244, 319.391 353.418, 320.294 352.737 C 322.221 351.284, 323.687 342.397, 324.579 326.750 C 324.921 320.760, 325.593 316.248, 326.096 316.559 C 326.593 316.867, 326.997 316.529, 326.994 315.809 C 326.982 313.398, 318.658 304.749, 314.556 302.886 C 309.383 300.537, 301.625 300.530, 296.500 302.871 M 408 305 C 403.932 309.068, 406.655 316.012, 412.307 315.985 C 416.058 315.967, 417.292 315.275, 418.847 312.322 C 422.162 306.023, 413.097 299.903, 408 305 M 418.362 316.500 C 417.481 318.796, 418.717 321, 420.885 321 C 423.221 321, 424.066 319.153, 422.830 316.750 C 421.727 314.606, 419.144 314.461, 418.362 316.500 M 519.535 320.250 C 517.054 333.176, 513.888 342.905, 507.265 357.965 C 506.293 360.177, 518.907 349.979, 521.753 346.252 C 525.373 341.514, 526.906 336.373, 526.956 328.815 C 527.013 320.225, 525.824 317, 522.604 317 C 520.640 317, 520.036 317.639, 519.535 320.250 M 302 323 C 302 324.646, 302.518 325.065, 304.250 324.820 C 305.488 324.644, 306.500 323.825, 306.500 323 C 306.500 322.175, 305.488 321.356, 304.250 321.180 C 302.518 320.935, 302 321.354, 302 323 M 267.090 329.857 C 267.041 330.603, 266.383 330.977, 265.630 330.688 C 264.643 330.309, 265.089 332.864, 267.228 339.831 C 270.660 351.013, 272.335 353.722, 271.343 346.487 C 270.575 340.881, 267.228 327.793, 267.090 329.857 M 559.597 340.942 C 556.900 343.052, 552.111 346.013, 548.954 347.522 L 543.215 350.265 547.107 356.288 C 551.149 362.541, 551.388 363.550, 551.183 373.500 C 551.065 379.205, 551.111 379.328, 552.133 376 C 553.973 370.009, 552.572 362.435, 548.487 356.282 C 546.489 353.274, 545 350.696, 545.177 350.554 C 545.355 350.413, 547.975 349.170, 551 347.793 C 554.025 346.416, 558.525 343.443, 561 341.186 C 566.646 336.037, 566.006 335.926, 559.597 340.942 M 306.830 339.178 C 306.098 339.551, 304.693 340.106, 303.707 340.413 C 301.662 341.049, 302.331 342.927, 306.676 348.750 C 308.662 351.411, 309.784 352, 312.864 352 C 317.374 352, 322 347.857, 322 343.818 C 322 341.180, 319.836 338.497, 318.658 339.675 C 318.296 340.037, 318 339.888, 318 339.344 C 318 338.245, 308.924 338.110, 306.830 339.178 M 426.753 341.247 C 425.789 342.211, 424.380 343, 423.622 343 C 421.083 343, 419.744 345.631, 420.983 348.186 C 421.867 350.007, 421.572 349.870, 419.597 347.539 C 416.554 343.948, 415.270 344.689, 417.400 348.807 C 421.399 356.540, 431.840 361.842, 440.683 360.630 C 445.245 360.005, 452.650 356.398, 454.689 353.808 C 456.041 352.091, 457.239 345.734, 456.075 346.454 C 454.691 347.309, 452 345.948, 452 344.393 C 452 342.661, 450.344 342.560, 449.662 344.250 C 449.341 345.046, 449.129 344.909, 449.079 343.872 C 448.929 340.785, 446.208 339.811, 437.285 339.651 C 430.111 339.523, 428.186 339.814, 426.753 341.247 M 339.692 370.136 C 340.824 371.268, 342.530 372.038, 343.482 371.847 C 344.681 371.607, 344.047 370.973, 341.424 369.789 L 337.633 368.078 339.692 370.136 M 243.939 374.559 C 240.330 376.484, 235.248 379.958, 232.645 382.280 L 227.913 386.500 231.091 396 C 234.755 406.952, 236.405 409.358, 239.706 408.557 C 240.968 408.250, 243.069 407.740, 244.375 407.423 C 246.354 406.942, 246.930 407.359, 247.823 409.923 C 249.128 413.664, 249.671 413.702, 254.610 410.398 C 260.080 406.739, 263.924 402.988, 265.711 399.564 C 268.793 393.660, 265.441 379.350, 259.610 373.519 C 256.124 370.033, 251.896 370.313, 243.939 374.559 M 265.587 380.555 C 269.539 390.012, 269.295 399.613, 265.004 403.496 C 262.313 405.931, 262.480 407.806, 265.510 409.186 C 267.661 410.167, 268.367 410.004, 270.454 408.044 C 275.243 403.544, 276.299 399.707, 274.955 391.682 C 273.881 385.264, 273.323 384.101, 269.710 380.750 C 264.664 376.070, 263.694 376.024, 265.587 380.555 M 293.577 393.250 C 298.191 399.879, 308.873 413.639, 313.100 418.399 C 313.539 418.894, 312.802 415.519, 311.461 410.899 C 310.121 406.280, 308.563 400.630, 307.999 398.344 C 307.028 394.407, 306.506 393.948, 298.078 389.594 C 293.185 387.068, 288.879 385, 288.508 385 C 288.137 385, 290.418 388.712, 293.577 393.250 M 310.003 398.731 C 310.012 401.484, 315.425 418.951, 317.118 421.690 C 319.836 426.088, 321.798 427.016, 329.809 427.687 C 337.880 428.364, 366.954 426.283, 368.608 424.910 C 369.254 424.375, 371.709 423.378, 374.065 422.696 C 381.212 420.627, 379.639 418.049, 371.208 418.014 C 361.794 417.975, 342.846 412.108, 324.436 403.532 C 314.870 399.077, 309.998 397.456, 310.003 398.731 M 381 398.922 C 382.925 399.302, 385.696 400.400, 387.157 401.361 C 388.680 402.362, 390.065 402.704, 390.401 402.160 C 391.167 400.921, 383.740 397.967, 380.230 398.115 C 377.843 398.216, 377.940 398.317, 381 398.922 M 217.391 415.250 C 219.374 422.395, 219.464 421.999, 215.858 422.011 C 209.778 422.031, 205.299 423.187, 202.427 425.476 L 199.597 427.733 202.195 430.820 C 203.624 432.518, 206.049 437.865, 207.585 442.703 C 209.429 448.512, 211.352 452.480, 213.246 454.384 C 215.891 457.043, 216.519 457.220, 221.307 456.651 C 233.146 455.245, 247.192 453.141, 247.625 452.709 C 247.879 452.454, 247.137 447.578, 245.975 441.873 C 243.863 431.510, 240.423 424.392, 235.280 419.749 C 232.864 417.568, 221.779 413, 218.903 413 C 217.169 413, 216.884 413.424, 217.391 415.250 M 458.642 420.041 C 458.054 422.978, 458.962 425.574, 461.836 429.174 C 462.973 430.598, 462.940 430.814, 461.615 430.620 C 460.759 430.494, 459.745 430.078, 459.362 429.696 C 458.241 428.575, 457 428.894, 457 430.304 C 457 431.022, 455.638 433.756, 453.973 436.382 C 451.429 440.393, 449.741 441.712, 443.396 444.643 C 439.244 446.562, 427.893 450.133, 418.173 452.579 C 393.444 458.802, 393.643 458.695, 391.475 466.847 C 390.502 470.506, 388.631 475.655, 387.316 478.289 L 384.927 483.078 390.305 485.456 C 400.919 490.150, 421.052 497.005, 434.232 500.413 C 446.174 503.500, 464.136 507.147, 464.717 506.603 C 464.836 506.491, 465.447 502.053, 466.073 496.741 C 467.741 482.600, 466.851 441.864, 464.749 436.123 C 463.868 433.716, 463.539 432.141, 464.018 432.623 C 465.030 433.641, 474 456.574, 474 458.143 C 474 458.723, 474.601 460.616, 475.335 462.349 C 478.273 469.279, 480.591 477.116, 484.613 493.710 C 485.468 497.238, 506 487.003, 506 483.049 C 506 479.765, 504.127 479.732, 500.070 482.944 C 496.469 485.797, 489.131 489.522, 488.519 488.809 C 488.374 488.639, 487.291 484.071, 486.113 478.658 C 484.936 473.245, 483.580 468.070, 483.102 467.158 C 482.623 466.246, 479.202 457.400, 475.499 447.500 C 471.202 436.011, 467.731 428.320, 465.902 426.237 C 464.327 424.442, 462.342 421.629, 461.493 419.987 C 460.644 418.344, 459.791 417, 459.599 417 C 459.407 417, 458.976 418.368, 458.642 420.041 M 377.335 423.758 C 376.527 424.281, 377.893 427.427, 381.784 434.007 C 384.872 439.228, 388.817 446.749, 390.551 450.719 C 393.411 457.271, 393.867 457.818, 395.486 456.634 C 397.171 455.402, 397.179 455.057, 395.629 450.415 C 393.382 443.685, 381.789 423.577, 379.973 423.260 C 379.163 423.118, 377.976 423.342, 377.335 423.758 M 243.983 429.250 C 249.540 441.873, 251.341 470.694, 247.654 487.983 C 246.659 492.648, 245.767 496.923, 245.672 497.483 C 245.578 498.042, 247.587 498.635, 250.139 498.800 L 254.777 499.100 255.883 492.749 C 259.606 471.370, 259.847 451.258, 256.563 436 C 254.029 424.226, 254.632 425, 247.989 425 L 242.112 425 243.983 429.250 M 366.802 427.531 C 365.562 428.771, 373.337 459.877, 375.882 463.857 C 376.918 465.476, 381 464.490, 381 462.620 C 381 461.935, 379.721 457.578, 378.159 452.938 C 376.596 448.297, 374.510 441.125, 373.522 437 C 372.535 432.875, 371.283 428.938, 370.741 428.250 C 369.724 426.960, 367.736 426.597, 366.802 427.531 M 376 439.678 C 376 441.546, 381.527 458.861, 382.404 459.737 C 382.637 459.971, 383.759 459.664, 384.896 459.056 C 386.908 457.979, 386.919 457.836, 385.286 453.725 C 383.378 448.920, 380.461 443.610, 377.809 440.115 C 376.166 437.949, 376 437.909, 376 439.678 M 382.650 469.250 C 378.581 478.407, 378.234 480.492, 380.627 481.410 C 383.818 482.635, 387.242 477.633, 389.081 469.059 C 389.978 464.877, 389.905 463.762, 388.652 462.509 C 387.822 461.679, 386.957 461, 386.730 461 C 386.502 461, 384.667 464.712, 382.650 469.250 M 313 466.775 C 303.529 467.819, 275.357 472.355, 274.723 472.938 C 273.703 473.878, 275.887 484, 277.110 484 C 278.535 484, 308.956 478.027, 313.250 476.904 C 316.625 476.021, 316.993 475.602, 316.930 472.711 C 316.826 467.960, 315.834 466.463, 313 466.775 M 377.814 467.044 C 376.887 467.585, 371.085 470.055, 364.921 472.532 C 354.967 476.532, 352.154 478.271, 339.759 488.085 C 332.084 494.162, 321.607 502.041, 316.476 505.593 C 309.470 510.444, 307.009 512.731, 306.593 514.776 C 305.127 521.977, 304.014 531.004, 304.008 535.750 C 304 540.817, 304.096 540.999, 306.750 540.980 C 313.082 540.935, 323.706 538.784, 333.939 535.476 L 344.857 531.946 356.518 513.844 C 362.932 503.888, 369.688 492.987, 371.532 489.621 C 374.456 484.282, 382 467.555, 382 466.411 C 382 465.668, 379.534 466.041, 377.814 467.044 M 469 482 C 469 483.659, 469.667 484, 472.906 484 C 476.320 484, 476.747 483.748, 476.290 482 C 475.897 480.497, 474.926 480, 472.383 480 C 469.667 480, 469 480.394, 469 482" stroke="none" fill="#ebd38a" fill-rule="evenodd"/></svg>